<svg width="120" height="32" viewBox="0 0 120 32" fill="none" xmlns="http://www.w3.org/2000/svg">
  <defs>
    <linearGradient id="grad-a" x1="6" y1="2" x2="26" y2="30" gradientUnits="userSpaceOnUse">
      <stop offset="0" stop-color="#7F5BFF"/>
      <stop offset="1" stop-color="#40D3FD"/>
    </linearGradient>
    <linearGradient id="grad-b" x1="4" y1="8" x2="28" y2="24" gradientUnits="userSpaceOnUse">
      <stop offset="0" stop-color="#FF59C1"/>
      <stop offset="1" stop-color="#FFAC59"/>
    </linearGradient>
  </defs>
  <g filter="url(#shadow)">
    <path d="M8 4h14a2 2 0 0 1 2 2v20a2 2 0 0 1-2 2H8a2 2 0 0 1-2-2V6a2 2 0 0 1 2-2Z" fill="url(#grad-a)"/>
    <path d="M12.5 9.5h8a1.5 1.5 0 0 1 0 3h-8a1.5 1.5 0 0 1 0-3Zm0 6h8a1.5 1.5 0 0 1 0 3h-8a1.5 1.5 0 0 1 0-3Z" fill="#0A0C14" opacity=".6"/>
    <path d="M4 12.5c0-1.933 1.567-3.5 3.5-3.5h14c1.933 0 3.5 1.567 3.5 3.5V24c0 1.657-1.343 3-3 3H7a3 3 0 0 1-3-3V12.5Z" fill="url(#grad-b)" opacity=".65"/>
  </g>
  <text x="38" y="22" font-family="Manrope, sans-serif" font-size="16" font-weight="700" fill="#F6F7FB" letter-spacing="0.12em">PIXELARCADE</text>
  <defs>
    <filter id="shadow" x="0" y="0" width="32" height="32" filterUnits="userSpaceOnUse" color-interpolation-filters="sRGB">
      <feOffset dy="4" />
      <feGaussianBlur stdDeviation="6" result="blur"/>
      <feColorMatrix type="matrix" values="0 0 0 0 0.16 0 0 0 0 0.19 0 0 0 0 0.38 0 0 0 0.4 0"/>
      <feBlend in="SourceGraphic" in2="blur" result="shape"/>
    </filter>
  </defs>
</svg>

